<?xml version="1.0" standalone="no"?>
<!DOCTYPE svg PUBLIC "-//W3C//DTD SVG 20010904//EN"
 "http://www.w3.org/TR/2001/REC-SVG-20010904/DTD/svg10.dtd">
<svg version="1.0" xmlns="http://www.w3.org/2000/svg"
 width="224.000000pt" height="180.000000pt" viewBox="0 0 224.000000 180.000000"
 preserveAspectRatio="xMidYMid meet">
<metadata>
Created by potrace 1.16, written by Peter Selinger 2001-2019
</metadata>
<g transform="translate(0.000000,180.000000) scale(0.100000,-0.100000)"
fill="#000000" stroke="none">
<path d="M0 900 l0 -900 1120 0 1120 0 0 900 0 900 -1120 0 -1120 0 0 -900z
m1282 701 c73 -14 132 -32 194 -61 75 -36 102 -55 175 -129 52 -53 96 -108
112 -141 15 -30 32 -62 37 -70 25 -41 74 -190 104 -320 14 -61 22 -210 18
-325 -2 -44 -7 -56 -44 -97 -44 -48 -108 -88 -141 -88 -10 0 -16 -4 -12 -9 3
-6 -11 -13 -32 -17 -21 -3 -52 -15 -69 -25 -19 -12 -50 -19 -80 -19 -27 0 -71
-7 -99 -16 -70 -22 -566 -22 -641 1 -27 8 -67 15 -89 15 -22 0 -59 9 -81 19
-23 10 -55 22 -72 26 -17 3 -36 13 -43 21 -6 8 -18 14 -26 14 -43 0 -134 75
-165 134 -23 45 -22 102 6 286 16 109 19 119 61 260 26 84 84 210 111 241 8 8
14 20 14 25 0 6 27 38 60 72 57 58 209 162 237 162 8 0 24 6 36 14 22 13 138
34 227 40 25 1 57 3 71 4 14 1 73 -7 131 -17z"/>
<path d="M1343 1315 c-39 -7 -80 -18 -91 -24 -27 -14 -39 -51 -21 -62 20 -12
99 -11 99 1 0 19 52 30 163 35 61 3 115 5 119 5 21 0 4 18 -34 35 -54 24 -142
28 -235 10z"/>
<path d="M713 1299 c-18 -5 -49 -19 -69 -31 -34 -20 -36 -24 -31 -61 5 -34 2
-43 -17 -58 -42 -33 -13 -97 57 -129 123 -54 225 -47 238 18 8 42 24 59 60 67
16 4 29 12 29 18 -1 19 -43 64 -67 72 -41 12 -24 25 31 25 31 0 58 5 64 13 17
20 -8 61 -43 68 -46 10 -216 8 -252 -2z"/>
<path d="M1315 1204 c-60 -32 -65 -38 -65 -87 0 -30 5 -40 25 -49 14 -6 25
-19 25 -28 0 -28 21 -38 85 -41 91 -3 187 27 230 71 23 24 25 31 16 49 -7 12
-15 21 -19 21 -4 0 -29 20 -55 45 -48 45 -49 45 -120 45 -59 0 -82 -5 -122
-26z m195 -144 c0 -5 -5 -10 -11 -10 -5 0 -7 5 -4 10 3 6 8 10 11 10 2 0 4 -4
4 -10z"/>
<path d="M523 869 c-16 -16 -17 -93 -2 -122 7 -12 33 -45 58 -73 25 -28 64
-73 86 -100 43 -53 155 -167 195 -198 13 -11 60 -35 104 -53 64 -26 94 -33
148 -33 37 0 70 4 73 10 3 5 23 14 43 20 42 11 128 66 198 125 46 39 165 182
214 257 14 21 28 38 32 38 11 0 28 62 28 103 l0 40 -62 -7 c-35 -4 -88 -17
-118 -29 -60 -22 -171 -27 -287 -12 -41 5 -67 4 -75 -3 -21 -16 -59 -17 -111
-3 -39 11 -59 12 -99 3 -83 -20 -175 -15 -251 13 -87 31 -158 41 -174 24z
m419 -145 c84 -20 262 -15 406 11 118 21 139 16 134 -31 -2 -16 -10 -36 -18
-45 -8 -8 -14 -20 -14 -25 0 -13 -61 -72 -92 -90 -99 -57 -198 -79 -302 -68
-144 17 -266 91 -266 163 0 12 -5 21 -10 21 -6 0 -18 16 -27 36 -14 29 -15 37
-3 44 17 11 106 3 192 -16z"/>
</g>
</svg>
